<?xml version="1.0" encoding="utf-8"?>
<!-- Generator: Adobe Illustrator 24.1.0, SVG Export Plug-In . SVG Version: 6.00 Build 0)  -->
<svg version="1.1" xmlns="http://www.w3.org/2000/svg" xmlns:xlink="http://www.w3.org/1999/xlink" x="0px" y="0px"
	 viewBox="0 0 550 200" style="enable-background:new 0 0 550 200;" xml:space="preserve">
<style type="text/css">
	.st0{fill:url(#SVGID_1_);}
	.st1{opacity:0.5;fill:url(#SVGID_2_);}
	.st2{opacity:0.3;fill:url(#SVGID_3_);}
	.st3{fill:url(#SVGID_4_);}
	.st4{fill:url(#SVGID_5_);}
	.st5{opacity:0.3;fill:url(#SVGID_6_);}
	.st6{opacity:0.3;fill:url(#SVGID_7_);}
	.st7{fill:url(#SVGID_8_);}
	.st8{fill:url(#SVGID_9_);}
	.st9{fill:url(#SVGID_10_);}
	.st10{fill:url(#SVGID_11_);}
	.st11{fill:url(#SVGID_12_);}
	.st12{fill:url(#SVGID_13_);}
	.st13{fill:#FFFFFF;}
	.st14{fill:url(#SVGID_14_);}
	.st15{fill:url(#SVGID_15_);}
	.st16{fill:url(#SVGID_16_);}
	.st17{fill:#2272D3;}
	.st18{font-family:'LEMONMILK-Bold';}
	.st19{font-size:55.0808px;}
	.st20{font-family:'LEMONMILK-Medium';}
	.st21{font-size:19.2767px;}
	.st22{fill:#E3E4E5;}
	.st23{fill:url(#SVGID_17_);}
	.st24{fill:url(#SVGID_18_);}
	.st25{fill:url(#SVGID_19_);}
</style>
<g id="BACKGROUND">
</g>
<g id="OBJECTS">
	<g>
		<g>
			<path class="st13" d="M104.9,29.5H62.4v115.6h40.4c24.7,0,44.8-20.1,44.8-44.8s-20.1-44.8-44.8-44.8H89.2v13.7h13.5
				c17.1,0,31.1,13.9,31.1,31.1s-13.9,31.1-31.1,31.1H76.1V43.2h28.8c31.3,0,56.7,25.5,56.7,56.7c0,31.3-25.4,56.7-56.7,56.7H48v-88
				h7.6V55H34.3v115.4h70.6c38.8,0,70.4-31.6,70.4-70.4C175.3,61.1,143.7,29.5,104.9,29.5z"/>
			<polygon class="st13" points="48,170.5 48,68.7 55.7,68.7 55.7,55 34.3,55 34.3,170.5 			"/>
			<path class="st13" d="M102.7,55.5H89.2v13.7h13.5c17.1,0,31.1,13.9,31.1,31.1s-13.9,31.1-31.1,31.1H62.4v13.7h40.3
				c24.7,0,44.8-20.1,44.8-44.8S127.4,55.5,102.7,55.5z"/>
		</g>
		<g>
			<text transform="matrix(1 0 0 1 204.2278 141.7826)" class="st13 st18 st19">Dwaraka</text>
			<text transform="matrix(1 0 0 1 203.9907 165.1234)" class="st13 st20 st21">Cable and internet Services</text>
		</g>
	</g>
</g>
<g id="TEXTS">
</g>
</svg>
